<mxfile host="app.diagrams.net" modified="2022-08-24T16:31:54.581Z" agent="5.0 (Macintosh; Intel Mac OS X 10_15_7) AppleWebKit/537.36 (KHTML, like Gecko) Chrome/98.0.4758.80 Safari/537.36 Edg/98.0.1108.43" etag="mdwWzAetLybks7hZ-PmM" version="20.2.6" type="github">
  <diagram id="q-poOADq89SLV2On1OTE" name="第 1 页">
    <mxGraphModel dx="893" dy="1790" grid="1" gridSize="10" guides="1" tooltips="1" connect="1" arrows="1" fold="1" page="1" pageScale="1" pageWidth="827" pageHeight="1169" math="0" shadow="0">
      <root>
        <mxCell id="0" />
        <mxCell id="1" parent="0" />
        <mxCell id="LNDC6W70i-blcDO_hwsq-19" value="" style="rounded=1;whiteSpace=wrap;html=1;strokeColor=none;shadow=0;glass=0;comic=0;gradientColor=none;fontFamily=Courier New;fontColor=#FFFFFF;fillColor=#f4f1de;" parent="1" vertex="1">
          <mxGeometry x="230" y="280" width="390" height="250" as="geometry" />
        </mxCell>
        <mxCell id="LNDC6W70i-blcDO_hwsq-20" value="&lt;font color=&quot;#ffffff&quot; face=&quot;Courier New&quot;&gt;animals&lt;/font&gt;" style="rounded=1;whiteSpace=wrap;html=1;strokeColor=none;shadow=1;glass=0;comic=0;gradientColor=none;fillColor=#81b29a;" parent="1" vertex="1">
          <mxGeometry x="240" y="400" width="90" height="30" as="geometry" />
        </mxCell>
        <mxCell id="LNDC6W70i-blcDO_hwsq-21" value="" style="endArrow=classic;html=1;exitX=1;exitY=0.5;exitDx=0;exitDy=0;strokeWidth=2;dashed=1;strokeColor=#696773;entryX=0;entryY=0.5;entryDx=0;entryDy=0;rounded=0;" parent="1" source="LNDC6W70i-blcDO_hwsq-20" target="LNDC6W70i-blcDO_hwsq-24" edge="1">
          <mxGeometry width="50" height="50" relative="1" as="geometry">
            <mxPoint x="380" y="460" as="sourcePoint" />
            <mxPoint x="410" y="415" as="targetPoint" />
            <Array as="points">
              <mxPoint x="430" y="500" />
            </Array>
          </mxGeometry>
        </mxCell>
        <mxCell id="LNDC6W70i-blcDO_hwsq-22" value="&lt;b style=&quot;color: rgb(105 , 103 , 115)&quot;&gt;category2&lt;/b&gt;" style="edgeLabel;html=1;align=center;verticalAlign=middle;resizable=0;points=[];fontFamily=Courier New;fontColor=#FFFFFF;labelBackgroundColor=none;" parent="LNDC6W70i-blcDO_hwsq-21" vertex="1" connectable="0">
          <mxGeometry x="0.0311" y="2" relative="1" as="geometry">
            <mxPoint x="7" y="-13" as="offset" />
          </mxGeometry>
        </mxCell>
        <mxCell id="LNDC6W70i-blcDO_hwsq-23" value="cat" style="rounded=1;whiteSpace=wrap;html=1;strokeColor=none;shadow=1;glass=0;comic=0;gradientColor=none;fontFamily=Courier New;fontColor=#FFFFFF;fillColor=#e07a5f;" parent="1" vertex="1">
          <mxGeometry x="510" y="350" width="90" height="30" as="geometry" />
        </mxCell>
        <mxCell id="LNDC6W70i-blcDO_hwsq-24" value="dog" style="rounded=1;whiteSpace=wrap;html=1;strokeColor=none;shadow=1;glass=0;comic=0;gradientColor=none;fontFamily=Courier New;fontColor=#FFFFFF;fillColor=#e07a5f;" parent="1" vertex="1">
          <mxGeometry x="510" y="400" width="90" height="30" as="geometry" />
        </mxCell>
        <mxCell id="LNDC6W70i-blcDO_hwsq-25" value="pig" style="rounded=1;whiteSpace=wrap;html=1;strokeColor=none;shadow=1;glass=0;comic=0;gradientColor=none;fontFamily=Courier New;fontColor=#FFFFFF;fillColor=#e07a5f;" parent="1" vertex="1">
          <mxGeometry x="510" y="450" width="90" height="30" as="geometry" />
        </mxCell>
        <mxCell id="LNDC6W70i-blcDO_hwsq-26" value="" style="endArrow=classic;html=1;exitX=1;exitY=0.25;exitDx=0;exitDy=0;strokeWidth=2;dashed=1;strokeColor=#696773;entryX=0;entryY=0.5;entryDx=0;entryDy=0;rounded=0;" parent="1" source="LNDC6W70i-blcDO_hwsq-20" target="LNDC6W70i-blcDO_hwsq-23" edge="1">
          <mxGeometry width="50" height="50" relative="1" as="geometry">
            <mxPoint x="380" y="460" as="sourcePoint" />
            <mxPoint x="410" y="415" as="targetPoint" />
            <Array as="points">
              <mxPoint x="370" y="408" />
              <mxPoint x="370" y="365" />
            </Array>
          </mxGeometry>
        </mxCell>
        <mxCell id="LNDC6W70i-blcDO_hwsq-27" value="&lt;font color=&quot;#696773&quot;&gt;&lt;b&gt;category1&lt;/b&gt;&lt;/font&gt;" style="edgeLabel;html=1;align=center;verticalAlign=middle;resizable=0;points=[];fontFamily=Courier New;fontColor=#FFFFFF;labelBackgroundColor=none;" parent="LNDC6W70i-blcDO_hwsq-26" vertex="1" connectable="0">
          <mxGeometry x="0.2736" y="1" relative="1" as="geometry">
            <mxPoint y="-14" as="offset" />
          </mxGeometry>
        </mxCell>
        <mxCell id="LNDC6W70i-blcDO_hwsq-28" value="" style="endArrow=classic;html=1;exitX=1;exitY=0.75;exitDx=0;exitDy=0;strokeWidth=2;dashed=1;strokeColor=#696773;entryX=0;entryY=0.5;entryDx=0;entryDy=0;rounded=0;" parent="1" source="LNDC6W70i-blcDO_hwsq-20" target="LNDC6W70i-blcDO_hwsq-25" edge="1">
          <mxGeometry width="50" height="50" relative="1" as="geometry">
            <mxPoint x="380" y="460" as="sourcePoint" />
            <mxPoint x="410" y="415" as="targetPoint" />
            <Array as="points">
              <mxPoint x="370" y="423" />
              <mxPoint x="370" y="465" />
            </Array>
          </mxGeometry>
        </mxCell>
        <mxCell id="LNDC6W70i-blcDO_hwsq-29" value="&lt;b style=&quot;color: rgb(105 , 103 , 115)&quot;&gt;category3&lt;/b&gt;" style="edgeLabel;html=1;align=center;verticalAlign=middle;resizable=0;points=[];fontFamily=Courier New;fontColor=#FFFFFF;labelBackgroundColor=none;" parent="LNDC6W70i-blcDO_hwsq-28" vertex="1" connectable="0">
          <mxGeometry x="0.1604" y="3" relative="1" as="geometry">
            <mxPoint x="13" y="-12" as="offset" />
          </mxGeometry>
        </mxCell>
        <mxCell id="LNDC6W70i-blcDO_hwsq-30" value="color1&lt;br&gt;#3d405b" style="rounded=1;whiteSpace=wrap;html=1;strokeColor=none;shadow=1;glass=0;comic=0;gradientColor=none;fontFamily=Courier New;fontColor=#FFFFFF;fillColor=#3d405b;" parent="1" vertex="1">
          <mxGeometry x="640" y="270" width="90" height="30" as="geometry" />
        </mxCell>
        <mxCell id="LNDC6W70i-blcDO_hwsq-31" value="color2&lt;br&gt;#81b29a" style="rounded=1;whiteSpace=wrap;html=1;strokeColor=none;shadow=1;glass=0;comic=0;gradientColor=none;fontFamily=Courier New;fontColor=#FFFFFF;fillColor=#81b29a;" parent="1" vertex="1">
          <mxGeometry x="640" y="320" width="90" height="30" as="geometry" />
        </mxCell>
        <mxCell id="LNDC6W70i-blcDO_hwsq-32" value="color3&lt;br&gt;#f2cc8f" style="rounded=1;whiteSpace=wrap;html=1;strokeColor=none;shadow=1;glass=0;comic=0;gradientColor=none;fontFamily=Courier New;fontColor=#FFFFFF;fillColor=#f2cc8f;" parent="1" vertex="1">
          <mxGeometry x="640" y="370" width="90" height="30" as="geometry" />
        </mxCell>
        <mxCell id="LNDC6W70i-blcDO_hwsq-33" value="line&lt;br&gt;#696773" style="rounded=1;whiteSpace=wrap;html=1;fillColor=#696773;strokeColor=none;shadow=1;glass=0;comic=0;gradientColor=none;fontFamily=Courier New;fontColor=#FFFFFF;" parent="1" vertex="1">
          <mxGeometry x="640" y="470" width="90" height="30" as="geometry" />
        </mxCell>
        <mxCell id="LNDC6W70i-blcDO_hwsq-34" value="color4&lt;br&gt;#e07a5f" style="rounded=1;whiteSpace=wrap;html=1;strokeColor=none;shadow=1;glass=0;comic=0;gradientColor=none;fontFamily=Courier New;fontColor=#FFFFFF;fillColor=#e07a5f;" parent="1" vertex="1">
          <mxGeometry x="640" y="420" width="90" height="30" as="geometry" />
        </mxCell>
        <mxCell id="LNDC6W70i-blcDO_hwsq-35" value="background&lt;br&gt;#f4f1de" style="rounded=1;whiteSpace=wrap;html=1;strokeColor=none;shadow=1;glass=0;comic=0;gradientColor=none;fontFamily=Courier New;fontColor=#FFFFFF;fillColor=#f4f1de;" parent="1" vertex="1">
          <mxGeometry x="640" y="520" width="90" height="30" as="geometry" />
        </mxCell>
        <mxCell id="LNDC6W70i-blcDO_hwsq-36" value="&lt;font face=&quot;Comic Sans MS&quot; style=&quot;font-size: 17px&quot;&gt;&lt;font style=&quot;font-size: 17px&quot;&gt;Title Font&lt;br&gt;Comic Sans MS&lt;/font&gt;&lt;br&gt;&lt;/font&gt;" style="text;html=1;strokeColor=none;fillColor=none;align=center;verticalAlign=middle;whiteSpace=wrap;rounded=0;fontColor=#3d405b;" parent="1" vertex="1">
          <mxGeometry x="370" y="300" width="150" height="20" as="geometry" />
        </mxCell>
        <mxCell id="LNDC6W70i-blcDO_hwsq-37" value="" style="rounded=1;whiteSpace=wrap;html=1;fillColor=#eff1f3;strokeColor=none;shadow=0;glass=0;comic=0;gradientColor=none;fontFamily=Courier New;fontColor=#FFFFFF;" parent="1" vertex="1">
          <mxGeometry x="240" y="560" width="390" height="250" as="geometry" />
        </mxCell>
        <mxCell id="LNDC6W70i-blcDO_hwsq-38" value="&lt;div style=&quot;text-align: left;&quot;&gt;&lt;span style=&quot;color: rgb(255, 255, 255); font-family: &amp;quot;Courier New&amp;quot;; background-color: initial;&quot;&gt;业务域&lt;/span&gt;&lt;/div&gt;&lt;font face=&quot;Courier New&quot; color=&quot;#ffffff&quot;&gt;&lt;div style=&quot;text-align: left;&quot;&gt;&lt;span style=&quot;background-color: initial;&quot;&gt;- ID&lt;/span&gt;&lt;/div&gt;&lt;div style=&quot;text-align: left;&quot;&gt;&lt;span style=&quot;background-color: initial;&quot;&gt;- 名称&lt;/span&gt;&lt;/div&gt;&lt;/font&gt;" style="rounded=1;whiteSpace=wrap;html=1;strokeColor=none;shadow=1;glass=0;comic=0;gradientColor=none;fillColor=#95E1D3;" parent="1" vertex="1">
          <mxGeometry x="250" y="650" width="90" height="60" as="geometry" />
        </mxCell>
        <mxCell id="LNDC6W70i-blcDO_hwsq-41" value="cat" style="rounded=1;whiteSpace=wrap;html=1;strokeColor=none;shadow=1;glass=0;comic=0;gradientColor=none;fontFamily=Courier New;fontColor=#FFFFFF;fillColor=#f38181;" parent="1" vertex="1">
          <mxGeometry x="520" y="630" width="90" height="30" as="geometry" />
        </mxCell>
        <mxCell id="LNDC6W70i-blcDO_hwsq-42" value="dog" style="rounded=1;whiteSpace=wrap;html=1;strokeColor=none;shadow=1;glass=0;comic=0;gradientColor=none;fontFamily=Courier New;fontColor=#FFFFFF;fillColor=#f38181;" parent="1" vertex="1">
          <mxGeometry x="520" y="680" width="90" height="30" as="geometry" />
        </mxCell>
        <mxCell id="LNDC6W70i-blcDO_hwsq-43" value="pig" style="rounded=1;whiteSpace=wrap;html=1;strokeColor=none;shadow=1;glass=0;comic=0;gradientColor=none;fontFamily=Courier New;fontColor=#FFFFFF;fillColor=#f38181;" parent="1" vertex="1">
          <mxGeometry x="520" y="730" width="90" height="30" as="geometry" />
        </mxCell>
        <mxCell id="LNDC6W70i-blcDO_hwsq-48" value="color1&lt;br&gt;#95e1d3" style="rounded=1;whiteSpace=wrap;html=1;strokeColor=none;shadow=1;glass=0;comic=0;gradientColor=none;fontFamily=Courier New;fontColor=#FFFFFF;fillColor=#95e1d3;" parent="1" vertex="1">
          <mxGeometry x="650" y="550" width="90" height="30" as="geometry" />
        </mxCell>
        <mxCell id="LNDC6W70i-blcDO_hwsq-49" value="color2&lt;br&gt;#eaffd0" style="rounded=1;whiteSpace=wrap;html=1;strokeColor=none;shadow=1;glass=0;comic=0;gradientColor=none;fontFamily=Courier New;fontColor=#FFFFFF;fillColor=#eaffd0;" parent="1" vertex="1">
          <mxGeometry x="650" y="600" width="90" height="30" as="geometry" />
        </mxCell>
        <mxCell id="LNDC6W70i-blcDO_hwsq-50" value="color3&lt;br&gt;#fce38a" style="rounded=1;whiteSpace=wrap;html=1;strokeColor=none;shadow=1;glass=0;comic=0;gradientColor=none;fontFamily=Courier New;fontColor=#FFFFFF;fillColor=#fce38a;" parent="1" vertex="1">
          <mxGeometry x="650" y="650" width="90" height="30" as="geometry" />
        </mxCell>
        <mxCell id="LNDC6W70i-blcDO_hwsq-51" value="line&lt;br&gt;#696773" style="rounded=1;whiteSpace=wrap;html=1;fillColor=#696773;strokeColor=none;shadow=1;glass=0;comic=0;gradientColor=none;fontFamily=Courier New;fontColor=#FFFFFF;" parent="1" vertex="1">
          <mxGeometry x="650" y="750" width="90" height="30" as="geometry" />
        </mxCell>
        <mxCell id="LNDC6W70i-blcDO_hwsq-52" value="color4&lt;br&gt;#f38181" style="rounded=1;whiteSpace=wrap;html=1;strokeColor=none;shadow=1;glass=0;comic=0;gradientColor=none;fontFamily=Courier New;fontColor=#FFFFFF;fillColor=#f38181;" parent="1" vertex="1">
          <mxGeometry x="650" y="700" width="90" height="30" as="geometry" />
        </mxCell>
        <mxCell id="LNDC6W70i-blcDO_hwsq-53" value="background&lt;br&gt;#EFF1F3" style="rounded=1;whiteSpace=wrap;html=1;fillColor=#eff1f3;strokeColor=none;shadow=1;glass=0;comic=0;gradientColor=none;fontFamily=Courier New;fontColor=#FFFFFF;" parent="1" vertex="1">
          <mxGeometry x="650" y="800" width="90" height="30" as="geometry" />
        </mxCell>
        <mxCell id="LNDC6W70i-blcDO_hwsq-54" value="&lt;font face=&quot;Comic Sans MS&quot; style=&quot;font-size: 17px&quot;&gt;&lt;font color=&quot;#696773&quot;&gt;元数据设计&lt;/font&gt;&lt;br&gt;&lt;/font&gt;" style="text;html=1;strokeColor=none;fillColor=none;align=center;verticalAlign=middle;whiteSpace=wrap;rounded=0;" parent="1" vertex="1">
          <mxGeometry x="380" y="580" width="150" height="20" as="geometry" />
        </mxCell>
        <mxCell id="LNDC6W70i-blcDO_hwsq-55" value="" style="rounded=1;whiteSpace=wrap;html=1;fillColor=#0b1922;strokeColor=none;shadow=0;glass=0;comic=0;gradientColor=none;fontFamily=Courier New;fontColor=#FFFFFF;" parent="1" vertex="1">
          <mxGeometry x="250" y="950" width="390" height="250" as="geometry" />
        </mxCell>
        <mxCell id="LNDC6W70i-blcDO_hwsq-56" value="&lt;font color=&quot;#ffffff&quot; face=&quot;Courier New&quot;&gt;animals&lt;/font&gt;" style="rounded=1;whiteSpace=wrap;html=1;strokeColor=none;shadow=1;glass=0;comic=0;gradientColor=none;fillColor=#04a789;" parent="1" vertex="1">
          <mxGeometry x="260" y="1070" width="90" height="30" as="geometry" />
        </mxCell>
        <mxCell id="LNDC6W70i-blcDO_hwsq-57" value="" style="endArrow=classic;html=1;exitX=1;exitY=0.5;exitDx=0;exitDy=0;strokeWidth=2;dashed=1;strokeColor=#e7e8e9;entryX=0;entryY=0.5;entryDx=0;entryDy=0;rounded=0;" parent="1" source="LNDC6W70i-blcDO_hwsq-56" target="LNDC6W70i-blcDO_hwsq-60" edge="1">
          <mxGeometry width="50" height="50" relative="1" as="geometry">
            <mxPoint x="400" y="1130" as="sourcePoint" />
            <mxPoint x="430" y="1085" as="targetPoint" />
          </mxGeometry>
        </mxCell>
        <mxCell id="LNDC6W70i-blcDO_hwsq-58" value="&lt;b style=&quot;&quot;&gt;category2&lt;/b&gt;" style="edgeLabel;html=1;align=center;verticalAlign=middle;resizable=0;points=[];fontFamily=Courier New;fontColor=#e7e8e9;labelBackgroundColor=none;" parent="LNDC6W70i-blcDO_hwsq-57" vertex="1" connectable="0">
          <mxGeometry x="0.0311" y="2" relative="1" as="geometry">
            <mxPoint x="7" y="-13" as="offset" />
          </mxGeometry>
        </mxCell>
        <mxCell id="LNDC6W70i-blcDO_hwsq-59" value="cat" style="rounded=1;whiteSpace=wrap;html=1;strokeColor=none;shadow=1;glass=0;comic=0;gradientColor=none;fontFamily=Courier New;fontColor=#FFFFFF;fillColor=#c8167e;" parent="1" vertex="1">
          <mxGeometry x="530" y="1020" width="90" height="30" as="geometry" />
        </mxCell>
        <mxCell id="LNDC6W70i-blcDO_hwsq-60" value="dog" style="rounded=1;whiteSpace=wrap;html=1;strokeColor=none;shadow=1;glass=0;comic=0;gradientColor=none;fontFamily=Courier New;fontColor=#FFFFFF;fillColor=#c8167e;" parent="1" vertex="1">
          <mxGeometry x="530" y="1070" width="90" height="30" as="geometry" />
        </mxCell>
        <mxCell id="LNDC6W70i-blcDO_hwsq-61" value="pig" style="rounded=1;whiteSpace=wrap;html=1;strokeColor=none;shadow=1;glass=0;comic=0;gradientColor=none;fontFamily=Courier New;fontColor=#FFFFFF;fillColor=#c8167e;" parent="1" vertex="1">
          <mxGeometry x="530" y="1120" width="90" height="30" as="geometry" />
        </mxCell>
        <mxCell id="LNDC6W70i-blcDO_hwsq-62" value="" style="endArrow=classic;html=1;exitX=1;exitY=0.25;exitDx=0;exitDy=0;strokeWidth=2;dashed=1;strokeColor=#e7e8e9;entryX=0;entryY=0.5;entryDx=0;entryDy=0;rounded=0;" parent="1" source="LNDC6W70i-blcDO_hwsq-56" target="LNDC6W70i-blcDO_hwsq-59" edge="1">
          <mxGeometry width="50" height="50" relative="1" as="geometry">
            <mxPoint x="400" y="1130" as="sourcePoint" />
            <mxPoint x="430" y="1085" as="targetPoint" />
            <Array as="points">
              <mxPoint x="390" y="1078" />
              <mxPoint x="390" y="1035" />
            </Array>
          </mxGeometry>
        </mxCell>
        <mxCell id="LNDC6W70i-blcDO_hwsq-63" value="&lt;font&gt;&lt;b&gt;category1&lt;/b&gt;&lt;/font&gt;" style="edgeLabel;html=1;align=center;verticalAlign=middle;resizable=0;points=[];fontFamily=Courier New;fontColor=#e7e8e9;labelBackgroundColor=none;" parent="LNDC6W70i-blcDO_hwsq-62" vertex="1" connectable="0">
          <mxGeometry x="0.2736" y="1" relative="1" as="geometry">
            <mxPoint y="-14" as="offset" />
          </mxGeometry>
        </mxCell>
        <mxCell id="LNDC6W70i-blcDO_hwsq-64" value="" style="endArrow=classic;html=1;exitX=1;exitY=0.75;exitDx=0;exitDy=0;strokeWidth=2;dashed=1;strokeColor=#e7e8e9;entryX=0;entryY=0.5;entryDx=0;entryDy=0;rounded=0;" parent="1" source="LNDC6W70i-blcDO_hwsq-56" target="LNDC6W70i-blcDO_hwsq-61" edge="1">
          <mxGeometry width="50" height="50" relative="1" as="geometry">
            <mxPoint x="400" y="1130" as="sourcePoint" />
            <mxPoint x="430" y="1085" as="targetPoint" />
            <Array as="points">
              <mxPoint x="390" y="1093" />
              <mxPoint x="390" y="1135" />
            </Array>
          </mxGeometry>
        </mxCell>
        <mxCell id="LNDC6W70i-blcDO_hwsq-65" value="&lt;b style=&quot;&quot;&gt;category3&lt;/b&gt;" style="edgeLabel;html=1;align=center;verticalAlign=middle;resizable=0;points=[];fontFamily=Courier New;fontColor=#e7e8e9;labelBackgroundColor=none;" parent="LNDC6W70i-blcDO_hwsq-64" vertex="1" connectable="0">
          <mxGeometry x="0.1604" y="3" relative="1" as="geometry">
            <mxPoint x="13" y="-12" as="offset" />
          </mxGeometry>
        </mxCell>
        <mxCell id="LNDC6W70i-blcDO_hwsq-66" value="color1&lt;br&gt;#0283c0" style="rounded=1;whiteSpace=wrap;html=1;strokeColor=none;shadow=1;glass=0;comic=0;gradientColor=none;fontFamily=Courier New;fontColor=#FFFFFF;fillColor=#0283c0;" parent="1" vertex="1">
          <mxGeometry x="660" y="940" width="90" height="30" as="geometry" />
        </mxCell>
        <mxCell id="LNDC6W70i-blcDO_hwsq-67" value="color2&lt;br&gt;#04a789" style="rounded=1;whiteSpace=wrap;html=1;strokeColor=none;shadow=1;glass=0;comic=0;gradientColor=none;fontFamily=Courier New;fontColor=#FFFFFF;fillColor=#04a789;" parent="1" vertex="1">
          <mxGeometry x="660" y="990" width="90" height="30" as="geometry" />
        </mxCell>
        <mxCell id="LNDC6W70i-blcDO_hwsq-68" value="color3&lt;br&gt;#fcd701" style="rounded=1;whiteSpace=wrap;html=1;strokeColor=none;shadow=1;glass=0;comic=0;gradientColor=none;fontFamily=Courier New;fontColor=#FFFFFF;fillColor=#fcd701;" parent="1" vertex="1">
          <mxGeometry x="660" y="1040" width="90" height="30" as="geometry" />
        </mxCell>
        <mxCell id="LNDC6W70i-blcDO_hwsq-69" value="line&lt;br&gt;#e7e8e9" style="rounded=1;whiteSpace=wrap;html=1;fillColor=#e7e8e9;strokeColor=none;shadow=1;glass=0;comic=0;gradientColor=none;fontFamily=Courier New;fontColor=#FFFFFF;" parent="1" vertex="1">
          <mxGeometry x="660" y="1140" width="90" height="30" as="geometry" />
        </mxCell>
        <mxCell id="LNDC6W70i-blcDO_hwsq-70" value="color4&lt;br&gt;#c8167e" style="rounded=1;whiteSpace=wrap;html=1;strokeColor=none;shadow=1;glass=0;comic=0;gradientColor=none;fontFamily=Courier New;fontColor=#FFFFFF;fillColor=#c8167e;" parent="1" vertex="1">
          <mxGeometry x="660" y="1090" width="90" height="30" as="geometry" />
        </mxCell>
        <mxCell id="LNDC6W70i-blcDO_hwsq-71" value="background&lt;br&gt;#0b1922" style="rounded=1;whiteSpace=wrap;html=1;fillColor=#0b1922;strokeColor=none;shadow=1;glass=0;comic=0;gradientColor=none;fontFamily=Courier New;fontColor=#FFFFFF;" parent="1" vertex="1">
          <mxGeometry x="660" y="1190" width="90" height="30" as="geometry" />
        </mxCell>
        <mxCell id="LNDC6W70i-blcDO_hwsq-72" value="&lt;font face=&quot;Comic Sans MS&quot; style=&quot;font-size: 17px&quot;&gt;&lt;font style=&quot;font-size: 17px&quot;&gt;Title Font&lt;br&gt;Comic Sans MS&lt;/font&gt;&lt;br&gt;&lt;/font&gt;" style="text;html=1;strokeColor=none;fillColor=none;align=center;verticalAlign=middle;whiteSpace=wrap;rounded=0;fontColor=#e7e8e9;" parent="1" vertex="1">
          <mxGeometry x="390" y="970" width="150" height="20" as="geometry" />
        </mxCell>
        <mxCell id="LNDC6W70i-blcDO_hwsq-145" value="" style="rounded=1;whiteSpace=wrap;html=1;fillColor=#eff1f3;strokeColor=none;shadow=0;glass=0;comic=0;gradientColor=none;fontFamily=Courier New;fontColor=#FFFFFF;" parent="1" vertex="1">
          <mxGeometry x="300" y="-520" width="400" height="270" as="geometry" />
        </mxCell>
        <mxCell id="LNDC6W70i-blcDO_hwsq-150" style="edgeStyle=none;rounded=0;orthogonalLoop=1;jettySize=auto;html=1;exitX=1;exitY=0.5;exitDx=0;exitDy=0;entryX=0.5;entryY=0;entryDx=0;entryDy=0;dashed=1;endArrow=blockThin;endFill=1;endSize=6;strokeColor=#696773;strokeWidth=2;" parent="1" source="LNDC6W70i-blcDO_hwsq-12" target="LNDC6W70i-blcDO_hwsq-15" edge="1">
          <mxGeometry relative="1" as="geometry" />
        </mxCell>
        <mxCell id="LNDC6W70i-blcDO_hwsq-12" value="私海表格" style="rounded=1;whiteSpace=wrap;html=1;fillColor=#77aac2;strokeColor=none;shadow=1;glass=0;comic=0;gradientColor=none;fontFamily=Courier New;fontColor=#FFFFFF;" parent="1" vertex="1">
          <mxGeometry x="390" y="-490" width="90" height="30" as="geometry" />
        </mxCell>
        <mxCell id="LNDC6W70i-blcDO_hwsq-2" value="&lt;div style=&quot;&quot;&gt;&lt;span style=&quot;color: rgb(255, 255, 255); font-family: &amp;quot;Courier New&amp;quot;; background-color: initial;&quot;&gt;业务域&lt;/span&gt;&lt;/div&gt;&lt;div style=&quot;text-align: left;&quot;&gt;&lt;span style=&quot;background-color: initial; color: rgb(255, 255, 255); font-family: &amp;quot;Courier New&amp;quot;;&quot;&gt;- ID&lt;/span&gt;&lt;/div&gt;&lt;font face=&quot;Courier New&quot; color=&quot;#ffffff&quot;&gt;&lt;div style=&quot;text-align: left;&quot;&gt;&lt;span style=&quot;background-color: initial;&quot;&gt;- 名称&lt;/span&gt;&lt;/div&gt;&lt;/font&gt;" style="rounded=1;whiteSpace=wrap;html=1;fillColor=#79d9ce;strokeColor=none;shadow=1;glass=0;comic=0;gradientColor=none;align=center;" parent="1" vertex="1">
          <mxGeometry x="230" y="-130" width="90" height="80" as="geometry" />
        </mxCell>
        <mxCell id="L0XpBwEi-y1WDcA01-vK-3" value="" style="edgeStyle=orthogonalEdgeStyle;rounded=0;orthogonalLoop=1;jettySize=auto;html=1;strokeWidth=2;strokeColor=#696773;dashed=1;endArrow=none;endFill=0;" edge="1" parent="1" source="LNDC6W70i-blcDO_hwsq-5" target="L0XpBwEi-y1WDcA01-vK-2">
          <mxGeometry relative="1" as="geometry" />
        </mxCell>
        <mxCell id="L0XpBwEi-y1WDcA01-vK-9" style="edgeStyle=orthogonalEdgeStyle;rounded=0;orthogonalLoop=1;jettySize=auto;html=1;exitX=0;exitY=0.75;exitDx=0;exitDy=0;entryX=0;entryY=0.5;entryDx=0;entryDy=0;dashed=1;strokeColor=#696773;strokeWidth=2;endArrow=none;endFill=0;" edge="1" parent="1" source="LNDC6W70i-blcDO_hwsq-5" target="L0XpBwEi-y1WDcA01-vK-5">
          <mxGeometry relative="1" as="geometry" />
        </mxCell>
        <mxCell id="LNDC6W70i-blcDO_hwsq-5" value="对象&lt;br&gt;&lt;div style=&quot;text-align: left;&quot;&gt;&lt;span style=&quot;background-color: initial;&quot;&gt;- ID&lt;/span&gt;&lt;/div&gt;&lt;div style=&quot;text-align: left;&quot;&gt;- 业务域ID&lt;/div&gt;&lt;div style=&quot;text-align: left;&quot;&gt;&lt;span style=&quot;background-color: initial;&quot;&gt;- 名称&lt;/span&gt;&lt;/div&gt;" style="rounded=1;whiteSpace=wrap;html=1;fillColor=#f19a97;strokeColor=none;shadow=1;glass=0;comic=0;gradientColor=none;fontFamily=Courier New;fontColor=#FFFFFF;align=center;" parent="1" vertex="1">
          <mxGeometry x="510" y="-190" width="90" height="90" as="geometry" />
        </mxCell>
        <mxCell id="LNDC6W70i-blcDO_hwsq-8" value="" style="endArrow=none;html=1;exitX=1;exitY=0.25;exitDx=0;exitDy=0;strokeWidth=2;dashed=1;strokeColor=#696773;entryX=0;entryY=0.5;entryDx=0;entryDy=0;rounded=0;edgeStyle=orthogonalEdgeStyle;endFill=0;" parent="1" source="LNDC6W70i-blcDO_hwsq-2" target="LNDC6W70i-blcDO_hwsq-5" edge="1">
          <mxGeometry width="50" height="50" relative="1" as="geometry">
            <mxPoint x="380" y="-20" as="sourcePoint" />
            <mxPoint x="410" y="-65" as="targetPoint" />
          </mxGeometry>
        </mxCell>
        <mxCell id="LNDC6W70i-blcDO_hwsq-9" value="&lt;font color=&quot;#696773&quot;&gt;&lt;b&gt;N&lt;/b&gt;&lt;/font&gt;" style="edgeLabel;html=1;align=center;verticalAlign=middle;resizable=0;points=[];fontFamily=Courier New;fontColor=#FFFFFF;labelBackgroundColor=none;" parent="LNDC6W70i-blcDO_hwsq-8" vertex="1" connectable="0">
          <mxGeometry x="0.2736" y="1" relative="1" as="geometry">
            <mxPoint x="62" y="-14" as="offset" />
          </mxGeometry>
        </mxCell>
        <mxCell id="LNDC6W70i-blcDO_hwsq-10" value="" style="endArrow=none;html=1;exitX=1;exitY=0.75;exitDx=0;exitDy=0;strokeWidth=2;dashed=1;strokeColor=#696773;entryX=0;entryY=0.5;entryDx=0;entryDy=0;rounded=0;endFill=0;" parent="1" source="LNDC6W70i-blcDO_hwsq-2" target="L0XpBwEi-y1WDcA01-vK-19" edge="1">
          <mxGeometry width="50" height="50" relative="1" as="geometry">
            <mxPoint x="380" y="-20" as="sourcePoint" />
            <mxPoint x="500" y="125" as="targetPoint" />
            <Array as="points">
              <mxPoint x="370" y="-57" />
              <mxPoint x="370" y="-15" />
            </Array>
          </mxGeometry>
        </mxCell>
        <mxCell id="LNDC6W70i-blcDO_hwsq-146" style="edgeStyle=orthogonalEdgeStyle;rounded=0;orthogonalLoop=1;jettySize=auto;html=1;exitX=0.5;exitY=0;exitDx=0;exitDy=0;entryX=0.5;entryY=1;entryDx=0;entryDy=0;strokeColor=#696773;strokeWidth=2;dashed=1;" parent="1" source="LNDC6W70i-blcDO_hwsq-13" target="LNDC6W70i-blcDO_hwsq-12" edge="1">
          <mxGeometry relative="1" as="geometry" />
        </mxCell>
        <mxCell id="LNDC6W70i-blcDO_hwsq-13" value="本地数据库" style="rounded=1;whiteSpace=wrap;html=1;fillColor=#79d9ce;strokeColor=none;shadow=1;glass=0;comic=0;gradientColor=none;fontFamily=Courier New;fontColor=#FFFFFF;" parent="1" vertex="1">
          <mxGeometry x="390" y="-420" width="90" height="30" as="geometry" />
        </mxCell>
        <mxCell id="LNDC6W70i-blcDO_hwsq-151" style="edgeStyle=none;rounded=0;orthogonalLoop=1;jettySize=auto;html=1;exitX=0;exitY=0.5;exitDx=0;exitDy=0;dashed=1;endArrow=blockThin;endFill=1;endSize=6;strokeColor=#696773;strokeWidth=2;" parent="1" source="LNDC6W70i-blcDO_hwsq-15" target="LNDC6W70i-blcDO_hwsq-149" edge="1">
          <mxGeometry relative="1" as="geometry" />
        </mxCell>
        <mxCell id="LNDC6W70i-blcDO_hwsq-15" value="服务端API" style="rounded=1;whiteSpace=wrap;html=1;fillColor=#696773;strokeColor=none;shadow=1;glass=0;comic=0;gradientColor=none;fontFamily=Courier New;fontColor=#FFFFFF;" parent="1" vertex="1">
          <mxGeometry x="530" y="-330" width="90" height="30" as="geometry" />
        </mxCell>
        <mxCell id="LNDC6W70i-blcDO_hwsq-18" value="&lt;font face=&quot;Comic Sans MS&quot; style=&quot;font-size: 17px&quot;&gt;&lt;font color=&quot;#696773&quot;&gt;对象元数据&lt;/font&gt;&lt;br&gt;&lt;/font&gt;" style="text;html=1;strokeColor=none;fillColor=none;align=center;verticalAlign=middle;whiteSpace=wrap;rounded=0;" parent="1" vertex="1">
          <mxGeometry x="370" y="-230" width="150" height="20" as="geometry" />
        </mxCell>
        <mxCell id="LNDC6W70i-blcDO_hwsq-152" style="edgeStyle=none;rounded=0;orthogonalLoop=1;jettySize=auto;html=1;exitX=0.5;exitY=0;exitDx=0;exitDy=0;entryX=0.5;entryY=1;entryDx=0;entryDy=0;dashed=1;endArrow=blockThin;endFill=1;endSize=6;strokeColor=#696773;strokeWidth=2;" parent="1" source="LNDC6W70i-blcDO_hwsq-149" target="LNDC6W70i-blcDO_hwsq-13" edge="1">
          <mxGeometry relative="1" as="geometry" />
        </mxCell>
        <mxCell id="LNDC6W70i-blcDO_hwsq-149" value="服务端数据库" style="rounded=1;whiteSpace=wrap;html=1;fillColor=#fcd765;strokeColor=none;shadow=1;glass=0;comic=0;gradientColor=none;fontFamily=Courier New;fontColor=#FFFFFF;" parent="1" vertex="1">
          <mxGeometry x="390" y="-330" width="90" height="30" as="geometry" />
        </mxCell>
        <mxCell id="LNDC6W70i-blcDO_hwsq-153" value="编辑表格&lt;br&gt;提交数据" style="text;html=1;resizable=0;autosize=1;align=center;verticalAlign=middle;points=[];fillColor=none;strokeColor=none;rounded=0;" parent="1" vertex="1">
          <mxGeometry x="525" y="-430" width="70" height="40" as="geometry" />
        </mxCell>
        <mxCell id="LNDC6W70i-blcDO_hwsq-154" value="同步数据&lt;br&gt;到本地" style="text;html=1;resizable=0;autosize=1;align=center;verticalAlign=middle;points=[];fillColor=none;strokeColor=none;rounded=0;" parent="1" vertex="1">
          <mxGeometry x="360" y="-375" width="70" height="40" as="geometry" />
        </mxCell>
        <mxCell id="LNDC6W70i-blcDO_hwsq-155" value="订阅变更&lt;br&gt;更新表格" style="text;html=1;resizable=0;autosize=1;align=center;verticalAlign=middle;points=[];fillColor=none;strokeColor=none;rounded=0;" parent="1" vertex="1">
          <mxGeometry x="360" y="-460" width="70" height="40" as="geometry" />
        </mxCell>
        <mxCell id="LNDC6W70i-blcDO_hwsq-156" value="更新数据库" style="text;html=1;resizable=0;autosize=1;align=center;verticalAlign=middle;points=[];fillColor=none;strokeColor=none;rounded=0;" parent="1" vertex="1">
          <mxGeometry x="465" y="-295" width="80" height="30" as="geometry" />
        </mxCell>
        <mxCell id="L0XpBwEi-y1WDcA01-vK-10" style="edgeStyle=orthogonalEdgeStyle;rounded=0;orthogonalLoop=1;jettySize=auto;html=1;exitX=0;exitY=0.75;exitDx=0;exitDy=0;entryX=1;entryY=0.5;entryDx=0;entryDy=0;dashed=1;strokeColor=#696773;strokeWidth=2;endArrow=none;endFill=0;" edge="1" parent="1" source="L0XpBwEi-y1WDcA01-vK-2" target="L0XpBwEi-y1WDcA01-vK-5">
          <mxGeometry relative="1" as="geometry" />
        </mxCell>
        <mxCell id="L0XpBwEi-y1WDcA01-vK-22" style="edgeStyle=elbowEdgeStyle;rounded=0;orthogonalLoop=1;jettySize=auto;html=1;exitX=0.5;exitY=1;exitDx=0;exitDy=0;entryX=0.889;entryY=0.125;entryDx=0;entryDy=0;entryPerimeter=0;dashed=1;endArrow=none;endFill=0;strokeColor=#696773;strokeWidth=2;elbow=horizontal;" edge="1" parent="1" source="L0XpBwEi-y1WDcA01-vK-2" target="L0XpBwEi-y1WDcA01-vK-19">
          <mxGeometry relative="1" as="geometry" />
        </mxCell>
        <mxCell id="L0XpBwEi-y1WDcA01-vK-2" value="属性&lt;br&gt;&lt;div style=&quot;text-align: left;&quot;&gt;&lt;span style=&quot;background-color: initial;&quot;&gt;- ID&lt;/span&gt;&lt;/div&gt;&lt;div style=&quot;text-align: left;&quot;&gt;- 对象ID&lt;/div&gt;&lt;div style=&quot;text-align: left;&quot;&gt;&lt;span style=&quot;background-color: initial;&quot;&gt;- 名称&lt;/span&gt;&lt;/div&gt;&lt;div style=&quot;text-align: left;&quot;&gt;&lt;span style=&quot;background-color: initial;&quot;&gt;- 数据格式&lt;/span&gt;&lt;/div&gt;&lt;div style=&quot;text-align: left;&quot;&gt;&lt;span style=&quot;background-color: initial;&quot;&gt;- 必填级别&lt;/span&gt;&lt;/div&gt;&lt;div style=&quot;text-align: left;&quot;&gt;&lt;span style=&quot;background-color: initial;&quot;&gt;- 默认值&lt;/span&gt;&lt;/div&gt;&lt;div style=&quot;text-align: left;&quot;&gt;&lt;span style=&quot;background-color: initial;&quot;&gt;- 选项ID&lt;/span&gt;&lt;/div&gt;" style="rounded=1;whiteSpace=wrap;html=1;fillColor=#f19a97;strokeColor=none;shadow=1;glass=0;comic=0;gradientColor=none;fontFamily=Courier New;fontColor=#FFFFFF;align=center;" vertex="1" parent="1">
          <mxGeometry x="670" y="-220" width="90" height="150" as="geometry" />
        </mxCell>
        <mxCell id="L0XpBwEi-y1WDcA01-vK-4" value="&lt;font color=&quot;#696773&quot;&gt;&lt;b&gt;1&amp;nbsp; &amp;nbsp; &amp;nbsp;N&lt;/b&gt;&lt;/font&gt;" style="edgeLabel;html=1;align=center;verticalAlign=middle;resizable=0;points=[];fontFamily=Courier New;fontColor=#FFFFFF;labelBackgroundColor=none;" vertex="1" connectable="0" parent="1">
          <mxGeometry x="438" y="-150" as="geometry">
            <mxPoint x="196" y="-8" as="offset" />
          </mxGeometry>
        </mxCell>
        <mxCell id="L0XpBwEi-y1WDcA01-vK-5" value="关系&lt;br&gt;&lt;div style=&quot;text-align: left;&quot;&gt;&lt;span style=&quot;background-color: initial;&quot;&gt;- ID&lt;/span&gt;&lt;/div&gt;&lt;div style=&quot;text-align: left;&quot;&gt;- 关系种类&lt;/div&gt;&lt;div style=&quot;text-align: left;&quot;&gt;- 来源对象ID&lt;/div&gt;&lt;div style=&quot;text-align: left;&quot;&gt;&lt;span style=&quot;background-color: initial;&quot;&gt;- 来源属性ID&lt;/span&gt;&lt;/div&gt;&lt;div style=&quot;text-align: left;&quot;&gt;&lt;span style=&quot;background-color: initial;&quot;&gt;- 目标对象ID&lt;/span&gt;&lt;/div&gt;&lt;div style=&quot;text-align: left;&quot;&gt;&lt;span style=&quot;background-color: initial;&quot;&gt;- 目标属性ID&lt;/span&gt;&lt;/div&gt;" style="rounded=1;whiteSpace=wrap;html=1;fillColor=#f19a97;strokeColor=none;shadow=1;glass=0;comic=0;gradientColor=none;fontFamily=Courier New;fontColor=#FFFFFF;align=center;" vertex="1" parent="1">
          <mxGeometry x="510" y="-70" width="90" height="140" as="geometry" />
        </mxCell>
        <mxCell id="L0XpBwEi-y1WDcA01-vK-11" value="&lt;font color=&quot;#696773&quot;&gt;&lt;b&gt;1&lt;/b&gt;&lt;/font&gt;" style="edgeLabel;html=1;align=center;verticalAlign=middle;resizable=0;points=[];fontFamily=Courier New;fontColor=#FFFFFF;labelBackgroundColor=none;" vertex="1" connectable="0" parent="1">
          <mxGeometry x="630" y="-159" as="geometry">
            <mxPoint x="26" y="60" as="offset" />
          </mxGeometry>
        </mxCell>
        <mxCell id="L0XpBwEi-y1WDcA01-vK-12" value="&lt;font color=&quot;#696773&quot;&gt;&lt;b&gt;1&lt;/b&gt;&lt;/font&gt;" style="edgeLabel;html=1;align=center;verticalAlign=middle;resizable=0;points=[];fontFamily=Courier New;fontColor=#FFFFFF;labelBackgroundColor=none;" vertex="1" connectable="0" parent="1">
          <mxGeometry x="424" y="-159" as="geometry">
            <mxPoint x="-94" y="33" as="offset" />
          </mxGeometry>
        </mxCell>
        <mxCell id="L0XpBwEi-y1WDcA01-vK-13" value="&lt;font color=&quot;#696773&quot;&gt;&lt;b&gt;1&lt;/b&gt;&lt;/font&gt;" style="edgeLabel;html=1;align=center;verticalAlign=middle;resizable=0;points=[];fontFamily=Courier New;fontColor=#FFFFFF;labelBackgroundColor=none;" vertex="1" connectable="0" parent="1">
          <mxGeometry x="567" y="-149" as="geometry">
            <mxPoint x="-94" y="33" as="offset" />
          </mxGeometry>
        </mxCell>
        <mxCell id="L0XpBwEi-y1WDcA01-vK-14" value="&lt;font color=&quot;#696773&quot;&gt;&lt;b&gt;N&lt;/b&gt;&lt;/font&gt;" style="edgeLabel;html=1;align=center;verticalAlign=middle;resizable=0;points=[];fontFamily=Courier New;fontColor=#FFFFFF;labelBackgroundColor=none;" vertex="1" connectable="0" parent="1">
          <mxGeometry x="472" y="-6" as="geometry" />
        </mxCell>
        <mxCell id="L0XpBwEi-y1WDcA01-vK-18" value="&lt;font color=&quot;#696773&quot;&gt;&lt;b&gt;N&lt;/b&gt;&lt;/font&gt;" style="edgeLabel;html=1;align=center;verticalAlign=middle;resizable=0;points=[];fontFamily=Courier New;fontColor=#FFFFFF;labelBackgroundColor=none;" vertex="1" connectable="0" parent="1">
          <mxGeometry x="617" y="-12" as="geometry" />
        </mxCell>
        <mxCell id="L0XpBwEi-y1WDcA01-vK-21" style="edgeStyle=orthogonalEdgeStyle;rounded=0;orthogonalLoop=1;jettySize=auto;html=1;exitX=1;exitY=0.5;exitDx=0;exitDy=0;entryX=0;entryY=0.5;entryDx=0;entryDy=0;dashed=1;endArrow=none;endFill=0;strokeColor=#696773;strokeWidth=2;" edge="1" parent="1" source="L0XpBwEi-y1WDcA01-vK-19" target="L0XpBwEi-y1WDcA01-vK-20">
          <mxGeometry relative="1" as="geometry" />
        </mxCell>
        <mxCell id="L0XpBwEi-y1WDcA01-vK-19" value="选项&lt;br&gt;&lt;div style=&quot;text-align: left;&quot;&gt;&lt;span style=&quot;background-color: initial;&quot;&gt;- ID&lt;/span&gt;&lt;/div&gt;&lt;div style=&quot;text-align: left;&quot;&gt;&lt;span style=&quot;background-color: initial;&quot;&gt;- 名称&lt;/span&gt;&lt;/div&gt;" style="rounded=1;whiteSpace=wrap;html=1;strokeColor=none;shadow=1;glass=0;comic=0;gradientColor=none;fontFamily=Courier New;fontColor=#FFFFFF;fillColor=#f2cc8f;" vertex="1" parent="1">
          <mxGeometry x="510" y="90" width="90" height="80" as="geometry" />
        </mxCell>
        <mxCell id="L0XpBwEi-y1WDcA01-vK-20" value="选项值&lt;br&gt;&lt;div style=&quot;text-align: left;&quot;&gt;&lt;span style=&quot;background-color: initial;&quot;&gt;- ID&lt;/span&gt;&lt;/div&gt;&lt;div style=&quot;text-align: left;&quot;&gt;&lt;span style=&quot;background-color: initial;&quot;&gt;- 选项ID&lt;/span&gt;&lt;/div&gt;&lt;div style=&quot;text-align: left;&quot;&gt;&lt;span style=&quot;background-color: initial;&quot;&gt;- 名称&lt;/span&gt;&lt;/div&gt;&lt;div style=&quot;text-align: left;&quot;&gt;&lt;span style=&quot;background-color: initial;&quot;&gt;- 值&lt;/span&gt;&lt;/div&gt;" style="rounded=1;whiteSpace=wrap;html=1;strokeColor=none;shadow=1;glass=0;comic=0;gradientColor=none;fontFamily=Courier New;fontColor=#FFFFFF;fillColor=#f2cc8f;" vertex="1" parent="1">
          <mxGeometry x="660" y="75" width="90" height="110" as="geometry" />
        </mxCell>
        <mxCell id="L0XpBwEi-y1WDcA01-vK-23" value="&lt;font color=&quot;#696773&quot;&gt;&lt;b&gt;1&lt;/b&gt;&lt;/font&gt;" style="edgeLabel;html=1;align=center;verticalAlign=middle;resizable=0;points=[];fontFamily=Courier New;fontColor=#FFFFFF;labelBackgroundColor=none;" vertex="1" connectable="0" parent="1">
          <mxGeometry x="425" y="-86" as="geometry">
            <mxPoint x="-94" y="33" as="offset" />
          </mxGeometry>
        </mxCell>
        <mxCell id="L0XpBwEi-y1WDcA01-vK-24" value="&lt;font color=&quot;#696773&quot;&gt;&lt;b&gt;N&lt;/b&gt;&lt;/font&gt;" style="edgeLabel;html=1;align=center;verticalAlign=middle;resizable=0;points=[];fontFamily=Courier New;fontColor=#FFFFFF;labelBackgroundColor=none;" vertex="1" connectable="0" parent="1">
          <mxGeometry x="491" y="134" as="geometry" />
        </mxCell>
        <mxCell id="L0XpBwEi-y1WDcA01-vK-25" value="&lt;font color=&quot;#696773&quot;&gt;&lt;b&gt;N&lt;/b&gt;&lt;/font&gt;" style="edgeLabel;html=1;align=center;verticalAlign=middle;resizable=0;points=[];fontFamily=Courier New;fontColor=#FFFFFF;labelBackgroundColor=none;" vertex="1" connectable="0" parent="1">
          <mxGeometry x="646" y="143" as="geometry" />
        </mxCell>
        <mxCell id="L0XpBwEi-y1WDcA01-vK-26" value="&lt;font color=&quot;#696773&quot;&gt;&lt;b&gt;N&lt;/b&gt;&lt;/font&gt;" style="edgeLabel;html=1;align=center;verticalAlign=middle;resizable=0;points=[];fontFamily=Courier New;fontColor=#FFFFFF;labelBackgroundColor=none;" vertex="1" connectable="0" parent="1">
          <mxGeometry x="702" y="-57" as="geometry" />
        </mxCell>
        <mxCell id="L0XpBwEi-y1WDcA01-vK-27" value="&lt;font color=&quot;#696773&quot;&gt;&lt;b&gt;1&lt;/b&gt;&lt;/font&gt;" style="edgeLabel;html=1;align=center;verticalAlign=middle;resizable=0;points=[];fontFamily=Courier New;fontColor=#FFFFFF;labelBackgroundColor=none;" vertex="1" connectable="0" parent="1">
          <mxGeometry x="706" y="51" as="geometry">
            <mxPoint x="-94" y="33" as="offset" />
          </mxGeometry>
        </mxCell>
      </root>
    </mxGraphModel>
  </diagram>
</mxfile>
